PathFileType	3	(X/Y/Z)	C:\Users\koon_\Desktop\																																																																															
DataRate	CameraRate	NumFrames	NumMarkers	Units	OrigDataRate	OrigDataStartFrame	OrigNumFrames																																																																											
100	100	10	27	mm	100	1359	2174																																																																											
Frame#	Time	get:LFHD			get:RFHD			get:LBHD			get:RBHD			get:C7			get:T10			get:CLAV			get:STRN			get:RBAK			get:LSHO			get:LUPA			get:LELB			get:LFRA			get:LWRA			get:LWRB			get:LFIN			get:RSHO			get:RUPA			get:RELB			get:RFRA			get:RWRA			get:RWRB			get:RFIN			get:LASI			get:RASI			get:LPSI			get:RPSI		
		X1	Y1	Z1	X2	Y2	Z2	X3	Y3	Z3	X4	Y4	Z4	X5	Y5	Z5	X6	Y6	Z6	X7	Y7	Z7	X8	Y8	Z8	X9	Y9	Z9	X10	Y10	Z10	X11	Y11	Z11	X12	Y12	Z12	X13	Y13	Z13	X14	Y14	Z14	X15	Y15	Z15	X16	Y16	Z16	X17	Y17	Z17	X18	Y18	Z18	X19	Y19	Z19	X20	Y20	Z20	X21	Y21	Z21	X22	Y22	Z22	X23	Y23	Z23	X24	Y24	Z24	X25	Y25	Z25	X26	Y26	Z26	X27	Y27	Z27
1359	13.58	55.236179	1475.7111	61.677013	-90.884262	1464.2339	49.444874	64.512138	1446.7776	-74.09491	-84.03524	1430.4163	-79.5476	6.8141918	1256.3291	-125.01171	30.911348	1039.1771	-171.55852	3.1849668	1161.5997	68.982117	8.881156	1002.5206	95.453514	-74.932816	1175.6333	-161.01414	169.82526	1258.3944	-51.811253	281.60226	1065.1523	-34.128429	299.061	959.6275	-94.269402	349.30316	1017.05	-49.918091	480.62836	1044.1764	37.722271	501.86914	985.15875	-3.6414621	566.33685	1022.3246	8.6165466	-140.78268	1250.2253	-41.289494	-226.97179	1131.142	-55.188461	-267.98526	930.67639	-126.89711	-394.53174	992.86462	-111.2223	-484.4837	1013.6037	-106.88432	-482.12589	942.14374	-93.429588	-534.97797	970.90961	-150.33182	159.02383	830.17847	9.4075556	-141.0282	817.81555	-3.7318037	72.256256	841.90808	-184.13068	-16.879036	831.02148	-189.37927
1360	13.59	56.32494	1477.8529	61.577835	-89.8937	1466.879	49.528187	65.212578	1449.6666	-74.360191	-83.321541	1433.6764	-79.628708	6.6855044	1258.4153	-125.91866	30.137774	1041.3221	-171.99681	3.6432395	1164.4392	68.03849	8.9789629	1005.2734	96.220596	-76.56781	1178.0046	-160.10393	169.38736	1261.5114	-53.179901	283.14316	1069.2878	-34.584404	302.09534	964.0741	-94.80558	351.6445	1021.6516	-49.913223	482.09607	1049.5548	38.507175	504.07855	990.56976	-2.4011128	568.01587	1028.0968	9.9585562	-140.67747	1252.9211	-40.830517	-226.77672	1133.6172	-53.851646	-267.78253	933.16321	-126.12753	-394.50485	993.92273	-109.49059	-485.08005	1013.4929	-105.62394	-481.83118	942.15881	-91.827774	-535.32422	970.0733	-148.61185	160.10303	832.88019	8.4208841	-140.09587	820.69489	-1.9537117	70.335815	843.68103	-184.22835	-18.840347	833.40607	-189.10645
1361	13.6	57.40361	1481.0881	61.389778	-88.786438	1470.7963	49.596401	65.905922	1453.6876	-74.824615	-82.63868	1438.3118	-79.706367	5.7438259	1261.8287	-126.86173	28.878494	1044.6415	-172.25824	4.0636821	1168.6803	67.408157	9.5194836	1009.7822	96.746964	-78.431351	1181.7419	-159.90611	168.90103	1265.7218	-54.795063	284.62833	1074.9752	-35.670986	304.93503	969.59296	-95.377251	353.94077	1027.6709	-50.216103	483.57388	1056.8831	38.869671	506.38049	997.99652	-1.6563107	569.84381	1036.1907	10.991918	-140.79109	1256.7642	-40.425499	-226.53465	1137.2025	-52.531746	-267.81473	936.61285	-125.09967	-395.13605	996.09064	-108.67372	-485.66544	1015.0278	-104.17522	-481.82809	943.66626	-90.595871	-536.11011	971.63129	-147.06888	160.62465	836.76129	7.9198079	-139.34979	824.95105	-0.406499	69.047821	847.00909	-183.72757	-20.098396	837.17181	-188.38509
1362	13.61	58.560162	1485.1497	61.059792	-87.563004	1475.6545	49.551212	66.506134	1458.7452	-75.362343	-81.980179	1444.1504	-80.032906	4.3275065	1266.5244	-127.68404	27.206827	1049.1622	-171.74887	4.5612988	1174.1648	66.850975	10.448431	1015.4523	96.278679	-79.880768	1186.7871	-160.82362	168.50301	1270.7035	-56.245392	285.9537	1081.493	-36.853867	307.66479	976.13025	-95.928085	356.06375	1034.9465	-50.696648	484.9491	1065.7678	38.975601	508.64697	1007.0723	-1.2908378	571.76025	1046.1818	11.872272	-140.84169	1261.6913	-40.469395	-226.53468	1142.0432	-51.71302	-268.01245	941.19452	-123.86579	-396.00143	999.63385	-107.12475	-486.47473	1017.9126	-102.17652	-481.98932	946.40167	-89.812111	-537.31152	975.32941	-145.54314	160.57237	841.55701	8.0264397	-138.98265	829.97382	1.078812	68.22683	851.85413	-182.85931	-20.891207	841.91553	-187.20206
1363	13.62	59.860809	1489.9706	60.541824	-86.269577	1481.381	49.493355	67.190666	1464.6001	-76.061226	-81.412071	1450.8058	-80.287697	2.466691	1271.787	-128.77698	24.763044	1054.2499	-170.69701	5.1205978	1180.4805	65.906311	11.387496	1022.0054	95.588943	-80.717163	1191.9425	-160.50778	168.07854	1276.3368	-57.892403	287.12259	1088.8263	-37.909801	310.26431	983.49811	-96.27179	357.94086	1043.1407	-51.255814	486.18915	1075.8555	38.951141	510.9017	1017.5182	-1.1802094	573.46674	1057.6326	12.598504	-140.7809	1267.5745	-40.727695	-226.73624	1148.1078	-51.051144	-268.37103	947.02814	-122.48766	-396.46149	1004.8139	-104.49011	-487.57224	1022.0995	-99.804291	-482.54477	950.35217	-89.311012	-540.29883	980.09747	-141.04242	160.04836	847.08759	8.680028	-139.02977	835.49457	2.1258948	67.741371	857.61456	-181.91183	-21.265356	847.73425	-186.1871
1364	13.63	61.008877	1495.2325	59.911354	-85.0812	1487.6417	49.169716	67.845085	1471.0265	-76.926964	-80.833618	1458.0576	-80.748383	0.84780109	1277.3219	-129.94051	22.89329	1059.4503	-170.05266	5.3768601	1187.3667	65.315079	12.039456	1029.0886	95.307823	-81.177147	1197.7633	-160.87425	167.48552	1282.4697	-59.439945	288.24316	1096.839	-38.690678	312.79562	991.53296	-96.360512	359.70081	1052.1123	-51.547668	487.26273	1086.7823	38.851604	513.06512	1029.0001	-1.2475654	575.04944	1070.2477	13.035155	-140.7215	1274.0824	-41.264881	-227.15363	1155.0629	-50.503216	-269.08441	953.87262	-120.85603	-397.70242	1010.8163	-102.09616	-488.90469	1027.442	-96.954224	-483.36328	955.43011	-89.282875	-541.86353	987.92255	-141.70805	159.39424	853.25702	9.5935822	-139.39748	841.10388	2.8165078	67.432884	864.0365	-180.51881	-21.440025	854.15833	-184.9691
1365	13.64	62.1306	1500.8641	59.155006	-84.016396	1494.299	48.620312	68.524994	1477.6466	-77.859734	-80.229836	1465.6021	-81.532661	0.43657351	1283.6433	-131.28145	22.218822	1065.4825	-169.90242	5.5239739	1194.9417	64.520142	12.169082	1036.8427	95.184837	-81.548668	1203.864	-161.15514	166.84349	1289.0051	-61.034683	289.36307	1105.3448	-38.959713	315.40469	1000.2029	-96.258911	361.34543	1061.5637	-51.596245	488.22568	1098.2172	38.852543	515.07703	1041.0139	-1.209295	576.42578	1083.4984	13.472766	-140.73013	1280.9598	-41.811432	-227.76695	1162.5886	-49.805504	-270.03934	961.27399	-118.93027	-399.27451	1017.5227	-99.411919	-490.74258	1033.6265	-94.20652	-484.71295	961.51599	-88.764816	-544.30237	995.24512	-139.29868	158.73605	859.8266	10.655292	-139.77638	846.88135	3.4752328	67.46637	871.25519	-179.66898	-21.300795	861.13422	-183.84044
1366	13.65	63.093014	1506.7722	58.157276	-83.058449	1501.1547	47.852692	69.098969	1484.3832	-78.979935	-79.738815	1473.295	-82.4786	0.41069251	1290.2467	-132.61861	21.932222	1071.9541	-169.89021	5.5630097	1202.5967	63.520947	12.017779	1044.8511	95.386047	-82.09594	1209.9193	-161.2809	166.10205	1295.7457	-62.484226	290.48801	1114.0939	-38.834763	317.96689	1009.2353	-95.996071	362.98801	1071.3075	-51.433788	489.12759	1109.894	38.935658	517.04932	1053.2456	-1.1665515	577.74982	1096.949	13.852149	-140.82143	1287.9978	-42.403904	-228.60863	1170.3474	-49.098053	-271.42999	968.93787	-116.89879	-401.1716	1024.6492	-96.914093	-492.76651	1040.4077	-91.528633	-486.53595	968.28094	-87.419304	-546.8399	1002.6177	-137.02246	158.22298	866.5365	11.572906	-140.01744	852.78064	3.9902442	67.57383	878.87579	-178.42757	-20.864931	868.23895	-182.50307
1367	13.66	63.974583	1512.8175	57.027977	-82.216278	1508.0039	46.983105	69.602867	1491.0753	-80.199409	-79.331757	1480.7039	-83.376778	0.20333917	1296.7341	-133.81303	21.58172	1078.2703	-169.46086	5.4378238	1210.2263	62.749973	11.790799	1052.9218	95.627998	-82.616493	1216.0583	-161.52245	165.35196	1302.6907	-63.998535	291.55994	1122.9442	-38.667236	320.44394	1018.3806	-95.487617	364.6235	1081.1719	-51.047081	490.05014	1121.5858	39.237179	518.90143	1065.4569	-0.96987593	578.91846	1110.3087	14.36762	-140.95201	1295.0011	-42.99781	-229.46503	1178.0522	-48.233372	-273.23016	976.32697	-114.40905	-403.20319	1031.812	-94.462967	-494.99588	1047.4426	-89.178574	-488.64618	975.38831	-85.070961	-549.41742	1009.506	-134.22691	157.90294	873.25897	12.407125	-140.06212	858.93591	4.4983802	67.915749	886.69464	-177.45433	-20.277132	875.71649	-181.44826
1368	13.67	64.621254	1518.8654	55.780342	-81.534874	1514.7855	45.851948	70.028709	1497.5326	-81.499374	-78.993095	1487.8444	-84.454117	-0.047918733	1303.0271	-134.84337	21.274855	1084.3912	-168.69827	5.2387896	1217.8798	62.164043	11.545334	1060.8563	96.169617	-83.29509	1221.8663	-161.4787	164.237	1309.7235	-64.934029	292.5719	1131.7394	-38.579914	322.77719	1027.3944	-94.846703	366.23819	1090.9426	-50.460693	490.99228	1133.0543	39.678223	520.7489	1077.5065	-0.52113038	580.07776	1123.3286	15.064928	-141.17159	1301.8817	-43.57093	-230.31329	1185.4711	-47.463909	-275.41925	983.43195	-111.82211	-405.39993	1038.9504	-92.251274	-497.19525	1054.6615	-86.945152	-490.83981	982.63751	-81.803123	-552.09717	1016.1349	-130.94229	157.80182	879.74353	13.033816	-139.86766	865.26453	4.9427853	68.398727	894.55243	-176.24611	-19.478861	883.34052	-180.44382
